<svg width="15" height="10" viewBox="0 0 15 10" fill="none" xmlns="http://www.w3.org/2000/svg">
<path fill-rule="evenodd" clip-rule="evenodd" d="M7.87927 2.66666C7.87927 3.95333 6.83261 4.99999 5.54594 4.99999C4.25927 4.99999 3.21261 3.95333 3.21261 2.66666C3.21261 1.37999 4.25927 0.333328 5.54594 0.333328C6.83261 0.333328 7.87927 1.37999 7.87927 2.66666ZM0.879272 8.5C0.879272 6.94666 3.98594 6.16666 5.54594 6.16666C7.10594 6.16666 10.2126 6.94666 10.2126 8.5V9.66666H0.879272V8.5ZM10.2393 6.20666C11.0126 6.76666 11.5459 7.51333 11.5459 8.5V9.66666H14.2126V8.5C14.2126 7.15333 11.8793 6.38666 10.2393 6.20666ZM11.8793 2.66666C11.8793 3.95333 10.8326 4.99999 9.54594 4.99999C9.18594 4.99999 8.85261 4.91333 8.54594 4.76666C8.96594 4.17333 9.21261 3.44666 9.21261 2.66666C9.21261 1.88666 8.96594 1.15999 8.54594 0.566662C8.85261 0.419995 9.18594 0.333328 9.54594 0.333328C10.8326 0.333328 11.8793 1.37999 11.8793 2.66666Z" fill="#FF267E"/>
</svg>
