<svg width="10" height="14" viewBox="0 0 10 14" fill="none" xmlns="http://www.w3.org/2000/svg">
<path fill-rule="evenodd" clip-rule="evenodd" d="M1.28448 2.3399C1.06862 2.33938 0.859427 2.4314 0.693218 2.59999C0.504286 2.79172 0.385442 3.06758 0.362911 3.36672C0.340379 3.66586 0.416011 3.96367 0.573118 4.19445L3.21531 6.98448L0.554652 9.79999C0.399659 10.0336 0.327139 10.3332 0.353148 10.6325C0.379157 10.9317 0.50155 11.206 0.693228 11.3945C0.886464 11.6026 1.14187 11.7026 1.39791 11.6704C1.65395 11.6382 1.88741 11.4767 2.04203 11.2248L5.17385 7.6969C5.45407 7.27962 5.45407 6.67803 5.17385 6.26075L2.05126 2.74699C1.86329 2.46944 1.57847 2.31822 1.28448 2.3399Z" fill="#FF267E"/>
<path fill-rule="evenodd" clip-rule="evenodd" d="M4.35181 0.202037C4.13596 0.201521 3.92676 0.293543 3.76055 0.462128C3.57162 0.653857 3.45278 0.929725 3.43025 1.22886C3.40772 1.52799 3.48335 1.82581 3.64046 2.05659L7.77926 6.98448L3.78827 11.9237C3.63328 12.1573 3.56076 12.4569 3.58677 12.7562C3.61278 13.0554 3.73517 13.3297 3.92685 13.5181C4.12008 13.7263 4.37549 13.8263 4.63153 13.7941C4.88757 13.7619 5.12102 13.6004 5.27565 13.3485L9.7378 7.6969C10.018 7.27962 10.018 6.67803 9.7378 6.26075L5.1186 0.609134C4.93063 0.331576 4.64581 0.180362 4.35181 0.202037Z" fill="#FF267E"/>
</svg>
