<svg width="11" height="11" viewBox="0 0 11 11" fill="none" xmlns="http://www.w3.org/2000/svg">
<path d="M10.6004 0.528737L8.36607 0.0131227C8.1233 -0.0427355 7.87409 0.0840196 7.77526 0.311749L6.74403 2.71795C6.6538 2.92849 6.71395 3.17556 6.89227 3.3195L8.1942 4.3851C7.42078 6.03292 6.06944 7.40359 4.38724 8.19205L3.32164 6.89013C3.17555 6.71181 2.93063 6.65165 2.72009 6.74189L0.313889 7.77312C0.0840111 7.87409 -0.0427441 8.1233 0.0131141 8.36607L0.528729 10.6004C0.582438 10.8324 0.788684 11 1.03145 11C6.53349 11 11 6.54209 11 1.03146C11 0.790841 10.8346 0.582447 10.6004 0.528737Z" fill="#FF267E"/>
</svg>
